<svg width="107" height="39" viewBox="0 0 107 39" fill="none" xmlns="http://www.w3.org/2000/svg">
<g clip-path="url(#clip0_2_101)">
<path d="M0 14.4501L4.76438 22.459L6.67013 20.6441L1.46902 12.9509L0 14.4501Z" fill="url(#paint0_linear_2_101)"/>
<path d="M70.9098 8.13762L70.7113 9.20285L72.9744 8.45324L72.6965 7.15131L70.9098 8.13762Z" fill="#0071B9"/>
<path d="M57.5696 0.917788L50.2245 9.28176L52.3685 8.68997L59.3562 0.010376L57.5696 0.917788Z" fill="url(#paint1_linear_2_101)"/>
<path d="M96.9154 12.3591L98.702 11.4122L98.1859 15.9098L96.9154 12.3591Z" fill="#1D2C5E"/>
<path d="M85.6794 15.2391L87.3072 15.5942L89.3321 14.6079L87.5455 13.9372L85.6794 15.2391Z" fill="#1D2C5E"/>
<path d="M30.4126 10.5048L30.6508 15.6731L32.9139 14.8051L32.239 9.51846L30.4126 10.5048Z" fill="url(#paint2_linear_2_101)"/>
<path d="M87.4263 8.9267L85.6397 9.91301L85.6794 15.2391L87.5057 14.3317L88.0616 11.7278L87.4263 8.9267Z" fill="url(#paint3_linear_2_101)"/>
<path d="M87.1881 15.5942L85.203 33.1112L88.3792 32.4799L88.9748 14.6473L87.1881 15.5942Z" fill="#312370"/>
<path d="M91.0393 33.9397L91.1187 36.3068L97.1933 38.24L99.0197 37.2932L93.0245 32.6772L86.9896 32.1643L85.203 33.1112L91.0393 33.9397Z" fill="#21386E"/>
<path d="M68.4879 29.7577L69.957 28.9687L70.9495 30.7046L72.3391 29.955L72.6171 32.2432L81.4709 33.8213L83.2178 32.835L71.0289 25.4574L62.3737 26.9171L60.7061 28.5347L68.4879 29.7577Z" fill="#21386E"/>
<path d="M65.669 8.21652L63.8824 9.20284L60.7061 28.5347L62.4928 27.5878L65.5499 16.7383L65.669 8.21652Z" fill="url(#paint4_linear_2_101)"/>
<path d="M51.5347 10.8204L50.1054 11.57L50.2245 12.0435L53.5993 9.91301L52.1302 8.3349L50.2245 9.28176L51.5347 10.8204Z" fill="#1D2C5E"/>
<path d="M55.3859 33.6635L40.9737 26.562L42.7603 25.1812L57.1725 32.6772L55.3859 33.6635Z" fill="#21386E"/>
<path d="M42.3236 7.23021L40.1399 11.3333L42.4427 10.6626L44.1102 6.2439L42.3236 7.23021Z" fill="#1D2C5E"/>
<path d="M22.472 24.2343L20.6456 25.4968C20.6456 25.4968 21.0427 27.5483 21.5588 28.9686C22.075 30.3889 23.266 31.5331 23.266 31.5331C24.0601 32.2827 24.9733 32.835 26.0453 33.1506C28.0701 33.7424 30.3729 33.3479 32.3581 32.0854C32.8742 31.7698 33.5889 31.2569 34.0256 30.8229C32.0801 32.0065 22.472 24.2343 22.472 24.2343Z" fill="url(#paint5_linear_2_101)"/>
<path d="M32.3581 15.2786L34.0256 33.703L40.934 32.7166L42.7603 31.7698L34.2241 14.1739L32.4772 14.7657L30.6508 15.6731L32.3581 15.2786Z" fill="#1D2C5E"/>
<path d="M6.55102 21.6699L14.2534 38.9896L21.5588 36.6619L23.3455 35.4783L8.17885 19.6973L6.2731 20.8414L4.76438 22.459L6.55102 21.6699Z" fill="url(#paint6_linear_2_101)"/>
<path d="M82.7414 29.8366L82.8605 30.7046C83.4957 30.6256 84.131 30.5467 84.7265 30.3495C85.4015 30.1128 86.8308 29.4815 87.3469 29.0081C87.1087 29.087 83.7737 29.955 82.7414 29.8366Z" fill="#1D2C5E"/>
<path d="M56.8946 25.4179L57.1725 26.7988C58.6416 26.562 59.9121 26.0492 61.1826 25.2996C61.9766 24.8261 62.8104 24.1554 63.0883 23.9582C62.8898 24.0765 56.8946 25.4179 56.8946 25.4179Z" fill="#1D2C5E"/>
<path d="M16.258 37.3381L15.7022 36.0756L8.39682 19.9L8.23801 19.5844L7.92038 19.7422L7.68216 19.8606L6.37196 20.4918C6.17344 20.1762 5.85582 19.6239 5.6573 19.2688L2.71927 14.3372L1.96491 13.0353L3.23541 12.2462C4.4265 11.4966 5.77641 10.7865 7.28513 10.1552C10.2232 8.93221 13.2009 8.26151 15.9404 8.26151C16.8536 8.26151 17.7271 8.34042 18.5211 8.45877C19.871 8.61658 21.1415 9.05056 22.1738 9.76071C23.7222 10.6287 24.953 11.9701 25.628 13.5482C26.1838 14.8501 26.3029 16.3888 25.9456 17.9669L25.7471 18.9137L26.5412 18.3614C27.0573 17.9669 27.6131 17.6512 28.2087 17.4145C29.241 16.9806 30.313 16.7438 31.3849 16.7438C32.4172 16.7438 33.3701 16.9411 34.2436 17.3356L34.7994 17.5723L34.7597 16.9411L34.5215 14.2978L34.4818 13.8638L34.0848 13.9821L32.854 14.2978L32.6554 9.80016L41.7078 6.92012L41.6284 10.4314L42.3033 10.5892L44.2885 6.84121L50.2042 12.049L50.4425 12.2857L50.6807 12.049C51.4747 11.2994 52.4673 10.6681 53.5393 10.2341L53.976 10.0369L53.6584 9.64235L52.5864 8.34041L59.3757 0.568237L62.949 5.8549L57.5096 8.77439L56.3185 9.40564L57.7081 9.44509C60.2888 9.48454 62.5916 10.5892 64.14 12.4829L64.6959 13.1931L65.0532 13.6271L64.4577 14.2583L64.0606 14.6923L62.7107 16.152L62.4725 16.4282L62.7504 16.6649L64.0209 17.8091L64.4974 18.243L64.6165 17.6118L65.0929 14.6134L65.212 13.8243L65.3311 13.0353L66.0458 8.57713H72.7953L72.835 8.26151L72.9541 7.51191H78.8302L80.2595 16.4282L80.3389 17.02L80.8154 16.6649C81.4109 16.231 82.0462 15.9153 82.7211 15.6392C83.6343 15.2841 84.5475 15.1263 85.5003 15.1263C86.612 15.1263 87.684 15.363 88.5972 15.8759C88.6369 15.8759 88.6369 15.9153 88.7163 15.9548L89.153 16.1126L89.1927 15.6392L89.3118 14.6528L89.3516 14.3372L89.0339 14.2583L87.8428 13.9821L87.8031 9.32673L96.8951 11.2994L97.5701 14.6528H98.2848L98.9994 11.7728L106.583 13.5876L98.8009 36.8252L93.2822 35.0893L93.2425 32.9589V32.6433L92.9248 32.6038L87.4061 31.8148L87.7237 29.0136L87.8031 28.3429L87.2076 28.6585C86.9297 28.8164 86.6517 28.9347 86.3738 29.0136C85.4606 29.3687 84.5475 29.5265 83.6343 29.5265C83.3564 29.5265 83.1182 29.5265 82.8402 29.4871L82.3638 29.4476L82.4432 29.921L82.8402 32.3671L74.7805 30.9468L74.3438 27.3172L74.2246 26.1336L73.6688 27.1593L72.7556 28.9347L71.0484 25.818L70.5323 24.8711L70.3734 25.9363L70.0161 28.3429L62.949 27.2382L63.5048 23.9242L63.6239 23.1746L62.949 23.5691C61.7976 24.2398 60.4477 24.7922 58.8992 25.1473C58.3434 25.2656 57.7875 25.384 57.192 25.4234L56.8744 25.4629V32.0909L42.9783 25.2656L42.4621 25.0289V31.4597L36.2287 32.3671L35.9508 29.566L35.8714 28.8164L35.3156 29.3292C34.4818 30.1183 33.5686 30.7495 32.576 31.1835C31.5438 31.6175 30.4718 31.8542 29.4395 31.8542C28.3675 31.8542 27.3749 31.6175 26.4618 31.223C24.7942 30.4339 23.5634 28.9742 23.0473 27.1199C22.8091 26.2519 22.7297 25.3445 22.8488 24.3977L22.9679 23.4113L22.2532 24.1215C21.7371 24.5949 21.1812 25.0684 20.5857 25.5023L20.3872 25.6601L20.4666 25.8969L22.5708 33.8663L22.9282 35.2866L21.5386 35.7206L17.608 36.9831L16.258 37.3381ZM18.005 15.9153C17.8065 15.9153 17.608 15.9153 17.3697 15.9548L17.0918 15.9942L16.6948 16.0731L16.8139 16.4677L16.8933 16.7044L18.005 20.3735L18.1241 20.7286L18.2829 21.2414L18.6799 20.8864L18.9579 20.6497C20.0695 19.6633 20.4269 18.677 20.1887 17.4145C20.0298 16.6649 19.474 16.3099 19.1167 16.152C18.8785 15.9942 18.4417 15.9153 18.005 15.9153ZM48.2588 16.0337L47.5441 16.7044L45.6781 18.4798L45.281 18.8743L45.7972 19.0715L47.7823 19.8211L48.3779 20.0579L48.2588 19.4266C48.1 18.5981 48.0603 17.7696 48.1397 16.9806L48.2588 16.0337ZM56.3582 13.9821C55.6039 13.9821 54.8495 14.2978 54.3334 14.8896C53.5393 15.7575 53.3805 17.0595 53.9363 18.0852L54.0951 18.3614L54.3334 18.7954L54.6907 18.4008L54.9289 18.1641L57.6684 15.0868L57.8669 14.8501L58.2243 14.4556L57.7478 14.2583L57.4302 14.14C57.0332 14.0611 56.7156 13.9821 56.3582 13.9821Z" fill="#FFCB05"/>
<path d="M60.5077 18.5531L60.4282 18.632C60.468 18.632 60.5077 18.5926 60.5077 18.5531Z" fill="#7D7F68"/>
<path d="M62.8898 16.4227L64.2397 14.963L63.7633 15.4364V15.3969L63.3662 15.8309L62.0163 17.2512L63.2868 18.3953L63.525 16.975L64.1603 17.5274L62.8898 16.4227Z" fill="#7D7F68"/>
<path d="M62.8898 16.4227L64.1603 17.5274L64.6367 14.529L64.2397 14.9629L62.8898 16.4227Z" fill="#7D7F68"/>
<path d="M53.4802 20.0129C53.5993 20.1312 53.4802 20.0523 53.5993 20.1312L54.433 19.5395C54.3139 19.4605 54.1948 19.3422 54.0757 19.2633C52.8846 18.1586 53.2022 15.7125 53.9566 14.3712C51.892 16.0282 52.0111 18.5531 53.4802 20.0129Z" fill="#C7A008"/>
<path d="M63.5251 21.3937C62.1354 22.5378 60.587 23.248 58.5225 23.7609C58.0857 23.8792 57.6093 23.9581 57.2123 23.9581C53.9169 24.2738 51.1774 22.7746 50.1451 20.3679C50.026 20.0918 49.9069 19.7762 49.8275 19.4605C49.351 17.409 49.7481 15.5942 50.7803 14.1344C50.8994 13.9766 50.9789 13.8583 51.098 13.7399C51.0583 13.7794 50.9789 13.8188 50.9392 13.8583C50.5421 14.2133 50.1848 14.5684 49.9069 15.0024C48.8746 16.4227 48.4776 18.277 48.954 20.3285C49.0334 20.6441 49.1128 20.9597 49.2716 21.2359C50.3039 23.682 53.0831 25.1812 56.3388 24.8656C56.7755 24.8261 57.2123 24.7472 57.6887 24.6288C59.7533 24.116 61.3414 23.4058 62.6913 22.2617C63.0089 21.9855 63.3662 21.6699 63.6839 21.3543L63.6442 21.3148C63.5648 21.3543 63.5251 21.3543 63.5251 21.3937Z" fill="#C7A008"/>
<path d="M40.3781 15.1997L44.0308 10.0708L43.872 9.95245L40.3384 14.884L40.3781 15.1997Z" fill="#C7A008"/>
<path d="M64.6367 14.529L64.1603 17.5274L63.525 16.975L63.2868 18.3953L62.0163 17.2512L63.3662 15.8309L63.7633 15.3969V15.4364L64.2397 14.9629L64.6367 14.529Z" fill="#C7A008"/>
<path d="M60.1106 6.08608L61.3811 5.53374L59.0386 2.53534L58.2842 3.64001L60.1106 6.08608Z" fill="#C7A008"/>
<path d="M24.5365 13.5032C18.5811 6.3228 7.90093 10.1892 4.08942 13.5426L4.24824 13.8188C5.12171 13.3059 6.07458 12.8719 7.02746 12.438C10.839 10.8204 14.4917 10.347 17.39 10.8599C18.4223 10.9782 19.4942 11.2938 20.4471 11.9251C21.7573 12.6747 22.7499 13.7004 23.3455 15.0418C24.3777 17.409 23.4646 20.5652 21.0427 23.1691C24.0998 20.368 26.2041 17.6852 24.5365 13.5032Z" fill="#C7A008"/>
<path d="M36.646 21.8672C36.6063 21.7488 36.6063 21.591 36.5666 21.4726C36.249 20.2891 35.5343 19.3422 34.5814 18.711C33.0727 17.6852 30.9288 17.4879 28.8245 18.3559C27.7128 18.8293 26.7599 19.5789 25.9659 20.4469C26.5614 19.934 27.2364 19.5395 27.951 19.2238C30.0553 18.3164 32.1993 18.5531 33.708 19.5789C34.6609 20.2102 35.3755 21.157 35.6931 22.3406C35.7328 22.459 35.7725 22.6168 35.7725 22.7351C35.8519 23.2086 35.8917 23.6425 35.8917 24.116C35.852 25.4968 35.3358 26.8777 34.502 28.0612C34.3829 28.2585 34.2241 28.4163 34.0653 28.6136C34.5417 28.1796 34.9785 27.7456 35.3358 27.2327C36.2093 26.0492 36.6857 24.6683 36.7651 23.2875C36.7651 22.814 36.7254 22.3406 36.646 21.8672Z" fill="#C7A008"/>
<path d="M30.8096 20.1312C30.8096 20.1312 31.6831 19.2633 31.6434 19.2633C30.5714 19.2238 30.095 20.2496 30.0553 20.3285C30.2935 20.2102 30.5317 20.1707 30.8096 20.1312Z" fill="#C7A008"/>
<path d="M32.8345 21.3543C32.8742 21.5121 32.9139 21.6304 32.9139 21.7883C32.9139 22.025 32.8742 22.2222 32.7551 22.4195C32.9139 22.3406 34.1844 21.7094 33.708 20.4469C33.7477 20.5258 32.7948 21.3543 32.8345 21.3543Z" fill="#C7A008"/>
<path d="M27.9113 22.1039C27.9113 21.591 28.8245 20.2891 29.1024 19.8551C27.6731 20.7625 27.0378 21.9855 27.0378 22.9324C27.0378 24.5894 28.5069 25.9308 30.2538 25.9308C31.0876 25.9308 32.5963 25.4968 33.5889 23.9187C33.0727 24.2738 31.7625 25.0628 31.0479 25.0628C29.3009 25.0628 27.9113 23.7609 27.9113 22.1039Z" fill="#C7A008"/>
<path d="M40.1796 23.6031L40.2193 30.2706L41.2913 30.3495L41.0531 22.7351L40.1796 23.6031Z" fill="#C7A008"/>
<path d="M34.0653 10.8599V11.4516L39.1473 9.95244L39.5046 16.3832L40.3781 15.1996L40.1796 8.76886L34.0653 10.8599Z" fill="#C7A008"/>
<path d="M49.351 13.1481L44.6263 8.80832L44.0308 10.0708L48.2393 13.9766L49.351 13.1481Z" fill="#C7A008"/>
<path d="M48.6364 21.2359L43.0382 19.3817L42.2442 20.2496L47.8026 22.459C48.4378 23.6425 49.3907 24.6683 50.5818 25.3785C51.7332 26.0886 53.0831 26.5226 54.4727 26.6409V29.3632L55.3462 29.7972L55.6241 25.6941L48.6364 21.2359Z" fill="#C7A008"/>
<path d="M57.6093 20.4863C58.9989 20.1707 59.7532 19.4606 60.4679 18.6715C59.9518 19.1055 57.4108 19.6578 56.974 19.7762L56.1403 20.6836C56.4976 20.6836 57.1328 20.6047 57.6093 20.4863Z" fill="#C7A008"/>
<path d="M55.108 11.0177C52.567 11.3333 51.2568 13.4637 51.0583 13.7005C52.0111 12.9114 53.1625 12.3196 54.4727 12.0434C57.6093 11.2938 60.3488 12.2407 62.056 14.3317L63.128 13.4637C61.4208 11.4122 58.2445 10.2681 55.108 11.0177Z" fill="#C7A008"/>
<path d="M63.6044 21.3148C63.9221 21.0781 64.4382 20.8019 64.7558 20.4863L61.3811 17.4879C61.1032 17.8035 60.9046 18.3164 60.587 18.5531L63.6044 21.3148Z" fill="#C7A008"/>
<path d="M80.9547 29.3632C77.4211 26.4437 77.6197 20.2496 79.3666 18.277L77.8182 8.53217L74.4037 8.96615L74.2449 9.8341H76.8256L78.2152 18.6715C76.4683 20.6441 75.6345 23.2875 76.1903 25.7335C76.6271 27.6273 77.8182 29.1265 79.4857 29.9944C79.6445 30.0733 79.843 30.1522 80.0019 30.2311L80.0416 30.3495L81.0738 30.5073C81.0341 30.5468 81.1532 29.4421 80.9547 29.3632Z" fill="#C7A008"/>
<path d="M67.3366 9.95246L67.1777 10.8204H71.0686L72.22 17.0934L73.0935 16.2254L72.1803 9.59738L67.3366 9.95246Z" fill="#C7A008"/>
<path d="M74.0067 22.1039L72.7362 25.339L73.0538 26.2069L74.8404 21.2754L74.0067 22.1039Z" fill="#C7A008"/>
<path d="M70.2746 20.0918L69.4011 20.9598L68.4482 26.7988L69.3614 27.1144L70.2746 20.0918Z" fill="#C7A008"/>
<path d="M87.7837 18.1981C88.2998 18.5532 88.7366 19.0266 89.0542 19.5789C89.3321 20.0129 89.4909 20.4469 89.6497 20.9992C90.0865 22.7746 89.5703 24.6683 88.4586 26.1675C88.3395 26.3253 88.2204 26.4831 88.1013 26.6015C88.538 26.207 94.0965 22.1433 88.6968 16.8172C82.7414 14.8841 80.4783 18.711 80.2798 18.9871C80.915 18.4742 81.6297 18.0008 82.4238 17.7246C84.4089 16.9356 86.3941 17.2118 87.7837 18.1981Z" fill="#C7A008"/>
<path d="M84.8059 18.5926C84.8059 18.6321 85.6794 17.7246 85.6794 17.7246C84.6074 17.7641 84.0913 18.277 84.1707 18.5137C84.0913 18.5926 84.0516 18.711 84.0119 18.7899C84.2104 18.6715 84.6471 18.5926 84.8059 18.5926Z" fill="#C7A008"/>
<path d="M86.7911 19.934C86.8308 20.0918 86.8308 20.2102 86.8308 20.368C86.8308 20.5652 86.7514 20.7625 86.672 20.9203C86.8308 20.8414 88.1013 20.4469 87.6249 19.0266C87.6646 19.1055 86.7514 19.934 86.7911 19.934Z" fill="#C7A008"/>
<path d="M83.9722 24.3921C85.1633 24.4316 86.5132 23.7215 87.466 22.4195C85.0442 22.9324 82.4634 18.8688 82.7017 18.4742C81.7885 19.1449 80.9547 20.4074 80.915 21.3148C80.8356 22.9718 82.2252 24.3132 83.9722 24.3921Z" fill="#C7A008"/>
<path d="M97.3521 34.926L97.908 35.2811L104.896 14.4501L99.6549 13.2665L99.6152 14.4895L103.824 15.3969L97.3521 34.926Z" fill="#C7A008"/>
<path d="M89.0542 11.0177L89.0939 12.2013L94.6523 13.3059L96.7963 23.4058L97.6698 22.5379L95.6052 12.3196L89.0542 11.0177Z" fill="#C7A008"/>
<path d="M93.3421 22.5378L91.7937 31.1385L92.6672 31.4147L94.2156 21.6699L93.3421 22.5378Z" fill="#C7A008"/>
<path d="M21.2015 34.2948L18.6208 24.905L17.6679 25.5757L20.0898 34.5315L21.2015 34.2948Z" fill="#C7A008"/>
<path d="M20.5265 20.2102C19.931 20.8414 18.5811 22.0644 17.8267 22.5379L17.3503 21.0781L16.3577 17.843L15.7225 15.6731L15.0872 16.4621L15.7225 18.632L16.715 21.8277L17.1915 23.2875C18.2635 22.6957 19.7722 21.4332 20.5265 20.2102Z" fill="#C7A008"/>
<path d="M57.3711 14.6473C56.5373 14.3317 55.3859 14.4106 54.7506 15.1208C54.5918 15.2786 54.3139 15.6731 54.2345 15.8704C54.8301 15.3969 55.9417 15.2786 56.6167 15.5547L57.3711 14.6473Z" fill="#7D7F68"/>
<path d="M19.8119 17.5668C19.7325 17.0934 19.256 16.6989 19.0178 16.5805C18.6208 16.3832 17.8664 16.3438 17.3503 16.4621C17.4297 16.7778 17.5488 17.1723 17.5885 17.3301C17.787 17.3696 18.1443 17.409 18.3429 17.4879C18.5811 17.6063 18.9781 17.843 19.0575 18.3559C19.1766 18.9871 19.1369 19.6184 18.859 20.0918C19.6134 19.3816 19.9707 18.5926 19.8119 17.5668Z" fill="#7D7F68"/>
<path d="M21.1018 17.5329C20.7445 15.6391 18.2432 14.5739 15.7419 15.9153L16.3772 18.0852L17.3697 21.3203L17.8462 22.7801C19.7122 21.636 21.5783 20.1762 21.1018 17.5329ZM18.6402 20.4918C18.3623 19.6239 17.7668 17.7301 17.7668 17.7301C17.7668 17.7301 17.6477 17.3356 17.4888 16.8622C18.005 16.7833 18.5211 16.8227 18.9182 17.02C19.1564 17.1384 19.5534 17.3751 19.6328 17.888C19.871 18.9137 19.5137 19.7028 18.6402 20.4918Z" fill="#3C5AA6"/>
<path d="M58.661 14.5345C57.2714 13.272 55.1274 13.3509 53.8569 14.7317C52.5864 16.1126 52.6658 18.243 54.0554 19.5055C54.1746 19.6239 54.2937 19.7028 54.4128 19.7817L58.8992 14.7317C58.8198 14.6923 58.7404 14.6134 58.661 14.5345ZM54.4525 18.0852C54.0157 17.2962 54.0951 16.2704 54.7701 15.5603C55.4054 14.8896 56.3582 14.6923 57.192 15.0079L54.4525 18.0852Z" fill="#3567B0"/>
<path d="M64.6367 13.9766L62.1751 16.3438L64.5176 18.4348L64.6367 13.9766Z" fill="#1E2D5F"/>
<path d="M87.6249 19.066C87.6646 19.2238 87.6646 19.3816 87.6646 19.5395C87.6249 20.4863 86.7514 21.1965 85.6794 21.157C84.6074 21.1176 83.7737 20.3285 83.8134 19.3816C83.8531 18.5137 84.6471 17.8035 85.6 17.7641C85.4015 17.7246 85.203 17.6852 85.0045 17.6852C83.2178 17.6063 81.7885 18.8688 81.7091 20.4074C81.6297 22.0644 82.9796 23.4453 84.7265 23.4847C86.5132 23.5636 87.9425 22.3011 88.0219 20.6441C88.141 20.0918 87.9425 19.5395 87.6249 19.066Z" fill="#3466AF"/>
<path d="M33.7874 20.9597C33.7874 21.9066 32.9139 22.6562 31.8816 22.6562C30.8096 22.6562 29.9759 21.9066 29.9759 20.9597C29.9759 20.0918 30.7302 19.3422 31.7228 19.2633C31.5243 19.2238 31.3258 19.2238 31.1273 19.2238C29.3406 19.2238 27.951 20.5258 27.951 22.1039C27.951 23.7609 29.3406 25.0628 31.0876 25.0628C32.8742 25.0628 34.2638 23.7609 34.2638 22.1039C34.2638 21.5121 34.0653 20.9992 33.7477 20.5258C33.7477 20.6441 33.7874 20.8019 33.7874 20.9597Z" fill="url(#paint7_linear_2_101)"/>
<path d="M98.6818 11.4177L97.8877 14.6528L97.1731 11.0626L87.4061 8.9322L87.4855 14.3372L88.9545 14.6528L88.8354 15.6392C88.8354 15.6392 88.7957 15.6392 88.7957 15.5997C86.9694 14.6528 84.7063 14.5345 82.602 15.363C81.8874 15.6392 81.2124 15.9942 80.6169 16.4282L79.1478 7.19629H72.6762L72.5174 8.26151H65.6885L64.8944 12.9958L64.3386 12.2857C62.671 10.2736 60.2888 9.16892 57.6287 9.09002L63.4254 6.01271L59.3757 0.0158997L52.0703 8.37987L53.3408 9.91852C52.1894 10.392 51.1968 11.0232 50.3631 11.8123L44.09 6.28888L41.9063 10.4314L41.9857 6.40723L32.179 9.52399L32.4569 14.7317L34.1245 14.2978L34.3627 16.9411C32.4569 16.0731 30.1541 16.1126 28.0499 17.02C27.4146 17.2962 26.8191 17.6118 26.3029 18.0063C26.6603 16.3888 26.5809 14.8107 25.9456 13.3904C25.231 11.7333 23.9208 10.313 22.3723 9.44509C21.2606 8.69549 19.9504 8.26151 18.5608 8.1037C15.1861 7.51191 11.0966 8.1037 7.08662 9.80016C5.6176 10.4314 4.22799 11.1416 2.99719 11.9306L1.44877 12.9169L2.40164 14.495L5.33968 19.4661L6.25285 20.9653L7.84098 20.1762L8.07919 20.0579L15.3846 36.2335L16.0992 37.7721L17.7271 37.2592L21.6577 35.9967L23.4046 35.4444L22.9679 33.7085L20.8636 25.739C21.4592 25.3051 22.015 24.8316 22.5311 24.3187C22.412 25.2656 22.4914 26.2519 22.7297 27.1593C23.2855 29.0925 24.556 30.6312 26.3426 31.4597C28.2484 32.3671 30.5909 32.3671 32.7349 31.4597C33.8068 30.9863 34.7994 30.355 35.5935 29.5265L35.8714 32.7222L42.7797 31.6964V25.5418L57.192 32.6433V25.818C57.7875 25.7785 58.3434 25.6601 58.9389 25.5418C60.5271 25.1473 61.877 24.6344 63.1078 23.9242L62.5122 27.5933L70.294 28.8164L70.7308 26.0152L72.7556 29.7632L73.9864 27.3961L74.4232 31.3019L83.2373 32.8405L82.7608 29.8816C83.9519 29.9999 85.2224 29.8421 86.4532 29.4081C86.7311 29.2898 87.0488 29.1714 87.287 29.0136L86.9296 32.1698L92.8057 32.9983L92.8454 35.405L98.9597 37.2987L106.94 13.4298L98.6818 11.4177ZM64.2194 14.9685L64.6165 14.5345L64.14 17.5329L62.8695 16.3888L64.2194 14.9685ZM59.058 2.65923L61.202 5.53927L55.0877 8.53768L54.651 7.90644C54.651 7.94589 59.058 2.65923 59.058 2.65923ZM18.6005 24.9105L21.0224 34.2214L17.0918 35.4839L8.99237 17.4934C8.55563 17.7302 7.72187 18.1247 7.00721 18.4798L4.06918 13.5482C5.22057 12.7986 6.53077 12.1673 7.88068 11.5755C11.6922 9.95797 15.3449 9.48454 18.2432 9.99743C19.2755 10.1158 20.3475 10.4314 21.3003 11.0626C22.6105 11.8123 23.6031 12.838 24.1987 14.1794C25.628 17.4145 23.2855 22.0699 18.6005 24.9105ZM36.7449 23.2535C36.7052 24.6344 36.189 26.0152 35.3156 27.1988C34.4818 28.3429 33.3701 29.2503 32.0202 29.8421C28.6057 31.3019 25.1913 29.8421 24.2781 26.607C23.4046 23.4902 25.4692 19.7817 28.7645 18.3614C30.8688 17.454 33.0128 17.6907 34.5215 18.7165C35.4744 19.3477 36.189 20.2946 36.5067 21.4782C36.5464 21.5965 36.5861 21.7543 36.5861 21.8727C36.7449 22.3461 36.7449 22.8195 36.7449 23.2535ZM55.3656 29.8421L41.0328 22.7406L41.0725 30.1972L37.3801 30.7101L37.1022 27.6328C38.2536 25.6996 38.6506 23.3719 38.0551 21.2809C37.7374 20.1368 37.1419 19.111 36.3081 18.3219L35.792 12.049L34.1245 12.4829L34.0451 10.9048L40.0005 9.12947L40.3579 15.2052L44.7252 9.09002L49.0528 13.1536L43.0577 19.4266L48.6955 21.636C49.3308 22.8195 50.2836 23.8059 51.4747 24.5555C52.6261 25.2656 53.976 25.6996 55.3656 25.818V29.8421ZM47.9412 19.5055L45.956 18.7559L47.8221 16.9806C47.7029 17.8091 47.7426 18.6376 47.9412 19.5055ZM63.5048 21.3993C62.1152 22.5434 60.5668 23.2535 58.5022 23.7664C58.0655 23.8848 57.589 23.9637 57.192 23.9637C53.8966 24.2793 51.1571 22.7801 50.1248 20.3735C50.0057 20.0973 49.8866 19.7817 49.8072 19.4661C49.3308 17.4145 49.7278 15.5997 50.7601 14.14C51.038 13.706 51.3953 13.3509 51.7924 12.9958C52.7452 12.1279 53.976 11.5361 55.3656 11.181C58.5022 10.4314 61.2417 11.3783 62.9489 13.4298L56.9935 19.7422C57.3905 19.8211 58.0258 19.7028 58.5022 19.5844C59.9315 19.2294 60.7256 18.4798 61.4005 17.6907L63.7827 19.8211L64.4974 20.4524C64.1797 20.8075 63.8621 21.1231 63.5048 21.3993ZM76.1701 29.8027L74.8599 21.2809L73.0335 25.9758L70.294 20.0973H70.2543L69.1823 26.9226L64.6165 26.1336L65.2517 22.3461C65.4105 22.1883 65.6091 22.0305 65.7679 21.8332L67.2369 20.334L65.8076 19.0321L67.356 9.95797H71.9616L73.113 16.2309L74.4232 8.97166H77.7185L79.1081 17.8091C77.3612 19.7817 76.5274 22.425 77.0833 24.8711C77.52 26.7648 78.7111 28.264 80.3786 29.1714C80.5374 29.2503 80.736 29.3292 80.8948 29.4081L81.0536 30.5523L76.1701 29.8027ZM87.5649 27.0015C87.0488 27.3566 86.4929 27.6722 85.8974 27.8695C84.7063 28.3035 83.5549 28.4218 82.4829 28.1851C81.7682 28.0273 81.0933 27.7511 80.4977 27.3566C79.5846 26.6859 78.9096 25.739 78.592 24.516C78.2347 23.0563 78.5523 21.4782 79.3464 20.0973C79.7434 19.4266 80.2595 18.7954 80.8551 18.243C81.53 17.6512 82.3241 17.1384 83.1579 16.8227C85.1827 16.0731 87.1679 16.3493 88.5575 17.3356C89.0736 17.6907 89.5104 18.1641 89.828 18.7165C90.0662 19.1504 90.2647 19.6239 90.3838 20.1368C90.8206 21.9121 90.3044 23.8059 89.1927 25.3051C88.8354 25.9758 88.2399 26.5281 87.5649 27.0015ZM97.8877 35.0499L94.513 34.0636L94.235 21.6754L92.5278 31.223L88.8354 30.6312L89.1133 27.8695C91.5352 25.8574 92.8057 22.6617 92.0911 19.7422C91.7734 18.4798 91.1382 17.3356 90.1853 16.5071L90.5029 13.272L89.1133 12.9169L89.153 11.181L95.5055 12.4435L97.6495 22.5039L99.8332 13.4693L104.677 14.5345L97.8877 35.0499Z" fill="url(#paint8_linear_2_101)"/>
<path d="M102.434 33.6635H102.593C102.791 33.6635 102.95 33.5846 102.95 33.3873C102.95 33.269 102.831 33.1112 102.593 33.1112H102.434V33.6635ZM102.434 34.492H102.196V32.9928C102.315 32.9534 102.434 32.9534 102.633 32.9534C102.871 32.9534 103.03 32.9928 103.109 33.0717C103.189 33.1506 103.268 33.2295 103.268 33.3873C103.268 33.5846 103.149 33.703 102.99 33.7424C103.109 33.7819 103.228 33.9002 103.228 34.0975C103.268 34.3342 103.308 34.4131 103.308 34.4526H103.069C103.03 34.4131 102.99 34.2553 102.95 34.058C102.911 33.8608 102.831 33.7819 102.633 33.7819H102.434V34.492ZM102.712 32.5588C102.117 32.5588 101.64 33.0717 101.64 33.703C101.64 34.3342 102.117 34.8471 102.752 34.8471C103.347 34.8471 103.824 34.3342 103.824 33.703C103.784 33.0717 103.308 32.5588 102.712 32.5588ZM102.712 32.3616C103.466 32.3616 104.022 32.9534 104.022 33.703C104.022 34.4526 103.427 35.0444 102.672 35.0444C101.918 35.0444 101.322 34.4526 101.322 33.703C101.362 32.9534 101.958 32.3616 102.712 32.3616Z" fill="black"/>
</g>
<defs>
<linearGradient id="paint0_linear_2_101" x1="5.28052" y1="21.127" x2="1.34201" y2="13.7412" gradientUnits="userSpaceOnUse">
<stop stop-color="#0070B6"/>
<stop offset="1" stop-color="#1D2C5E"/>
</linearGradient>
<linearGradient id="paint1_linear_2_101" x1="53.7878" y1="6.08057" x2="58.802" y2="0.673875" gradientUnits="userSpaceOnUse">
<stop stop-color="#0070B6"/>
<stop offset="1" stop-color="#1D2C5E"/>
</linearGradient>
<linearGradient id="paint2_linear_2_101" x1="31.7633" y1="15.0418" x2="31.1689" y2="10.0155" gradientUnits="userSpaceOnUse">
<stop stop-color="#0070B6"/>
<stop offset="1" stop-color="#1D2C5E"/>
</linearGradient>
<linearGradient id="paint3_linear_2_101" x1="86.9086" y1="14.0745" x2="86.6714" y2="9.53806" gradientUnits="userSpaceOnUse">
<stop stop-color="#125D9E"/>
<stop offset="1" stop-color="#1D2C5E"/>
</linearGradient>
<linearGradient id="paint4_linear_2_101" x1="70.0606" y1="7.53596" x2="64.8105" y2="15.9409" gradientUnits="userSpaceOnUse">
<stop stop-color="#125D9E"/>
<stop offset="1" stop-color="#1D2C5E"/>
</linearGradient>
<linearGradient id="paint5_linear_2_101" x1="23.1747" y1="20.9688" x2="26.7507" y2="28.0464" gradientUnits="userSpaceOnUse">
<stop stop-color="#105FA1"/>
<stop offset="1" stop-color="#1D2C5E"/>
</linearGradient>
<linearGradient id="paint6_linear_2_101" x1="9.54503" y1="18.5595" x2="13.6814" y2="28.2089" gradientUnits="userSpaceOnUse">
<stop stop-color="#105FA1"/>
<stop offset="1" stop-color="#1D2C5E"/>
</linearGradient>
<linearGradient id="paint7_linear_2_101" x1="27.8934" y1="22.137" x2="34.2178" y2="22.137" gradientUnits="userSpaceOnUse">
<stop stop-color="#3C5AA6"/>
<stop offset="0.933" stop-color="#2B73B9"/>
<stop offset="1" stop-color="#2A75BB"/>
</linearGradient>
<linearGradient id="paint8_linear_2_101" x1="1.47934" y1="18.9023" x2="106.988" y2="18.9023" gradientUnits="userSpaceOnUse">
<stop stop-color="#3C5AA6"/>
<stop offset="0.933" stop-color="#2B73B9"/>
<stop offset="1" stop-color="#2A75BB"/>
</linearGradient>
<clipPath id="clip0_2_101">
<rect width="107" height="39" fill="white"/>
</clipPath>
</defs>
</svg>
