<svg width="13" height="13" viewBox="0 0 13 13" fill="none" xmlns="http://www.w3.org/2000/svg">
<path d="M5.41667 9.75001C6.37811 9.74981 7.31185 9.42795 8.06921 8.83568L10.4504 11.2168L11.2163 10.4509L8.83512 8.06976C9.42771 7.31233 9.74977 6.37837 9.75 5.41668C9.75 3.02739 7.80596 1.08334 5.41667 1.08334C3.02737 1.08334 1.08333 3.02739 1.08333 5.41668C1.08333 7.80597 3.02737 9.75001 5.41667 9.75001ZM5.41667 2.16668C7.20904 2.16668 8.66667 3.6243 8.66667 5.41668C8.66667 7.20905 7.20904 8.66668 5.41667 8.66668C3.62429 8.66668 2.16667 7.20905 2.16667 5.41668C2.16667 3.6243 3.62429 2.16668 5.41667 2.16668Z" fill="black"/>
<path d="M6.1815 4.65074C6.38679 4.85657 6.5 5.12849 6.5 5.41665H7.58333C7.58381 5.13197 7.52786 4.85001 7.41871 4.58708C7.30956 4.32415 7.14938 4.08547 6.94742 3.88482C6.12733 3.06582 4.70546 3.06582 3.88592 3.88482L4.65075 4.65182C5.06242 4.24124 5.772 4.24232 6.1815 4.65074Z" fill="black"/>
</svg>
